<?xml version="1.0" encoding="utf-8"?>
<svg version="1.1" id="Capa_1" xmlns="http://www.w3.org/2000/svg" x="0px" y="0px"
	 viewBox="0 0 180 144" style="enable-background:new 0 0 180 144;" xml:space="preserve">
<style type="text/css">
	.st0{fill:#ffffff;}
</style>
<path class="st0" d="M130.995,92.7l0.022-0.251l1.287-1.153L130.995,92.7z M130.844,91.627l0.511,0.265l-0.763,0.2L130.844,91.627z
	 M130.15,93.096l0.001-0.032c0,0,0,0,0-0.001l0.011-0.544l0.215,0.274L130.15,93.096z M129.526,85.618
	c-0.28,3.797-1.514,6.676-3.7,8.636l-1.681,0.288l1.27-0.9l-1.855-0.093l2.111-0.348c-0.023-1.3-0.06-3.829-0.11-7.594
	c-0.075-3.873-0.17-6.976-0.284-9.307c-0.001-0.014,0.8,0.012,0.873,0.017c0.239,0.017,0.57,0,0.774,0.144
	c0.196,0.139,0.358,0.396,0.507,0.584c0.176,0.223,0.341,0.453,0.496,0.691c0.311,0.479,0.576,0.986,0.796,1.513
	c0.471,1.133,0.723,2.346,0.82,3.566C129.617,83.749,129.594,84.684,129.526,85.618 M126.321,95.296l-0.45,0.41l0.21-0.533
	l0.69-0.287L126.321,95.296z M124.837,111.86c0.061-0.008,0.528-0.436,0.586-0.519C125.485,111.451,125.07,112.013,124.837,111.86
	 M123.274,112.941l-0.157-1.425l0.55,0.325L123.274,112.941z M121.658,97.064l0.237,0.008l0.039,0.324L121.658,97.064z
	 M121.161,96.796v-0.35l0.235,0.048l0.196,0.5L121.161,96.796z M139.464,105.928c-0.511-0.821-0.812-1.319-0.904-1.492
	c-0.526-1.306-1.376-3.173-2.55-5.604c-1.69-3.384-2.629-5.248-2.815-5.596c-0.02-0.037,0.147-0.315,0.169-0.363
	c0.056-0.125,0.111-0.252,0.164-0.379c0.106-0.25,0.205-0.504,0.297-0.76c0.181-0.503,0.335-1.015,0.461-1.534
	c0.248-1.02,0.383-2.067,0.399-3.117c0.016-1.068-0.09-2.137-0.302-3.183c-0.098-0.485-0.218-0.965-0.359-1.439
	c-0.327-1.102-0.888-2.137-1.383-3.171c-0.063-0.133-0.132-0.261-0.202-0.391c-0.07-0.132-0.141-0.263-0.218-0.391
	c-0.04-0.066-0.078-0.134-0.117-0.201c-0.027-0.047-0.12-0.156-0.12-0.208c-0.198-0.345-0.435-0.662-0.734-0.925
	c-0.232-0.204-0.537-0.339-0.814-0.47c-0.514-0.242-1.044-0.451-1.576-0.653c-0.773-0.294-1.553-0.568-2.336-0.835
	c-0.483-0.165-0.967-0.326-1.452-0.486c-0.528-0.173-1.056-0.365-1.591-0.514c-0.397-0.111-0.808-0.164-1.216-0.221
	c-0.52-0.074-1.037-0.166-1.555-0.25c-0.223-0.038-0.447-0.074-0.669-0.115c0.003,8.324,0.187,16.45,0.537,24.39l0.199,0.256
	l-0.182,0.128c0.004,0.079,0.007,0.158,0.01,0.237l0.574,0.472l-0.564-0.251c0.26,5.673,0.604,11.253,1.041,16.73
	c0.162,0.016,0.323,0.044,0.487,0.046c0.112,0.001,0.481-0.003,0.436-0.2c0.018,0.08,0.052,0.158,0.084,0.231
	c0.026,0.06,0.071,0.18,0.135,0.212c0.078,0.039,0.102-0.059,0.109-0.116c0.013-0.116,0.019-0.27,0.126-0.343
	c0.012,0.056,0.035,0.099,0.069,0.145c0.093,0.126,0.358,0.421,0.539,0.369c0.046-0.013,0.079-0.052,0.123-0.068
	c0.083-0.031,0.217-0.003,0.305,0.004c0.549,0.044,1.09,0.171,1.632,0.264c0.258,0.044,0.516,0.085,0.774,0.122
	c0.06,0.009,0.687,0.066,0.688,0.089c-0.043-0.757-0.443-6.336-1.173-16.746c0.575,0.115,1.251-0.148,2.024-0.789
	c0.987-0.822,1.656-1.283,2.006-1.382c0.895,1.911,2.208,4.491,3.937,7.742c1.871,3.599,3.206,6.178,4.003,7.739
	c0.179,0.127,0.424,0.186,0.733,0.176c0.217-0.05,0.395-0.012,0.531,0.116c0.089,0.042,0.088-0.002-0.004-0.132
	c-0.092-0.129-0.072-0.196,0.06-0.2c0.293,0.374,0.428,0.332,0.598,0.114l0.014,0.463c0.391-0.188,1.007-0.186,1.851,0.009
	c0.291,0.06,0.583,0.12,0.874,0.179c0.179,0.037,0.358,0.088,0.543,0.093c0.168,0.005,0.339-0.041,0.505-0.067
	C141.421,109.414,140.02,106.836,139.464,105.928 M103.43,80.637l-0.4-0.685l-0.071,1.657L103.43,80.637z M103.344,94.519
	l-0.756-0.586l-0.166,1.184l0.123,0.244l-0.229,0.586h0.229l-0.129,0.185l0.229,0.514l-0.172,0.157l0.243,1.286l0.1-0.957
	l0.272,0.286l-0.015-0.843l-0.271-0.471l0.228-0.8l-0.214,0.043v-0.343l0.167-0.482L103.344,94.519z M103.016,103.416l0.314,0.128
	l-0.05-1.033l-0.35-0.509l0.172-0.786l-0.402-0.476l0.045,1.333l-0.075,1.141l0.189,0.259c0,0-0.014,0.414-0.014,0.457
	s0.485,0.714,0.485,0.714v-0.757l-0.285-0.129L103.016,103.416z M102.616,100.545l0.512,0.445l-0.035-1.157l-0.248,0.098
	L102.616,100.545z M102.916,98.803l0.072-0.714l-0.429,0.957l0.086,0.999l0.428-0.785L102.916,98.803z M102.023,99.81l-0.435-0.386
	l-0.364,0.993l0.293,0.371l-0.036-0.864l0.25,0.036L102.023,99.81z M101.731,104.244l-0.471-0.229l-0.079-0.221h-0.264l0.135,0.35
	l0.093,0.364l0.19-0.201L101.731,104.244z M101.524,106.186l-0.414-0.664l0.378-0.271l-0.086-0.379l-0.328-0.05l-0.193-0.214
	l0.114,0.743l-0.071,0.642L101.524,106.186z M100.774,102.723l0.321,0.293l-0.164,0.028l0.176,0.692l0.345-0.713l-0.192-0.057
	l0.164-0.193l-0.257-0.221L100.774,102.723z M101.231,99.988l-0.05-0.478l-0.171,0.214l-0.172-0.193l0.007,0.6l0.136,0.243
	L101.231,99.988z M101.517,103.13l-0.243,0.464l0.25-0.043l0.165,0.272L101.517,103.13z M101.566,101.895l-0.064-0.172l-0.307,0.215
	l-0.257-0.75l-0.121,0.314l0.278,0.75L101.566,101.895z M100.731,99.438l0.793-0.271l-0.693-0.221L100.731,99.438z M100.688,98.132
	l0.079,0.242l0.129-0.035l-0.015,0.428l0.179-0.157l0.399,0.25l-0.349-0.636l0.407-0.178L100.688,98.132z M100.624,97.917
	l0.272-0.349l0.278-0.158l0.164,0.557c0,0,0.071-0.607,0.071-0.635c0-0.029-0.202-0.651-0.202-0.651l-0.155,0.372l0.129,0.208
	l-0.293-0.143L100.624,97.917z M100.474,94.419l0.5,0.385l-0.143-0.657L100.474,94.419z M100.831,96.175l-0.048,0.413l0.634-0.356
	l0.428-0.057l-0.143-0.357l-0.528,0.371L100.831,96.175z M101.06,94.576l0.328,0.014l0.228,0.343l0.215-0.429l-0.6-0.3
	L101.06,94.576z M102.859,90.334l-0.129-0.928l-0.199,0.457L102.859,90.334z M102.573,91.477l0.372-0.2l0.19-0.392l-0.262,0.12
	l-0.243-0.614L102.573,91.477z M102.516,89.363l0.443-0.1l-0.157-0.343l0.4-0.428l-0.4-0.286l0.371-0.185l-0.328-0.671l0.285-0.843
	l-0.085-0.371l0.143-0.514l-0.345-0.833l-0.17,3.489L102.516,89.363z M102.716,83.165l0.2,1.014l0.086-0.4l-0.157-0.685
	L102.716,83.165z M102.787,82.95l0.429-0.299l0.086-0.314l-0.129-0.357L102.787,82.95z M110.371,91.605l0.371,0.114l0.628-0.185
	l0.158-0.257L110.371,91.605z M117.925,104.694l2.596,0.553l-17.126,2.84l-3.313,0.057c0,0,0.042-3.887-0.038-6.481
	c-0.134-3.223-0.196-5.257-0.187-6.099c0.137-10.389,0.518-17.47,1.139-21.243l-0.032-1.052c-0.001-0.044,0.823-0.128,0.903-0.135
	c0.309-0.027,0.619-0.042,0.929-0.024c0.289,0.017,0.576,0.09,0.864,0.127c0.581,0.075,1.176,0.111,1.753,0.166
	c0.396,0.038,0.798,0.04,1.196,0.053c0.804,0.025,1.609,0.033,2.414,0.04c0.032,0,0.064,0.001,0.097,0.001
	c1.394,0,2.779,0.301,4.118,0.661c0.269,0.072,0.538,0.126,0.808,0.189c0.035,0.009,0.418,0.148,0.428,0.14
	c-0.275,0.218-0.411,0.328-0.411,0.328s-0.965,0.012-2.893,0.036c-0.387-0.023-1.267-0.101-2.639-0.235
	c-1.128-0.141-2.093-0.164-2.896-0.07c-0.103,0.109-0.08,0.267,0.066,0.473c0.141,0.23,0.101,0.396,0.071,0.643
	c-0.041,0.341-0.024,0.704-0.035,1.049c-0.021,0.643-0.043,1.286-0.064,1.928c-0.028,0.836-0.056,1.671-0.084,2.507
	c-0.031,0.921-0.062,1.843-0.093,2.765c-0.031,0.901-0.062,1.803-0.092,2.705c-0.026,0.776-0.053,1.551-0.079,2.327
	c-0.018,0.544-0.037,1.087-0.055,1.631c-0.007,0.205-0.014,0.41-0.021,0.615l4.443-0.978l3.829-0.433l2.051,1.674l1.845,1.838
	l-4.401,0.608l-4.043,0.335l-3.824,0.59c0,0,0.254,7.132,0.442,10.986c0.668,0.05,9.794-1.563,9.794-1.563L117.925,104.694z
	 M55.291,65.576l-0.061-1.993l0.592,0.436l-0.324,0.552l0.534,0.21l-0.591,0.548l0.351,1.199l0.392-0.167l-0.209,1.257l0.361,0.114
	l-0.361,0.134l0.475,0.285l-0.37,0.06l0.447,1.692l-0.476-0.628l-0.629-2.704l-0.742-0.476L55.291,65.576z M55.099,58.154
	l0.247,0.21l-0.285,0.343l0.019-0.324c0,0-0.286,0.114-0.343,0.171s0.358,0.621,0.358,0.621l-0.053,1.912l0.466,1.279l-0.352,0.968
	l-0.286-0.305l-0.647-6.836L55.099,58.154z M54.064,53.707l0.59,0.718l-0.079,0.378l-0.086,0.457l0.533,0.248l-0.323,0.285
	l-0.107-0.229l-0.084,0.401l-0.362-0.99L54.064,53.707z M53.204,48.748l0.8,0.714l1.085,0.486l-1.514-0.172L53.204,48.748z
	 M54.518,49.405l-0.4-0.143l-0.8-1.114l0.686,0.543L54.518,49.405z M53.804,42.722l1.057,0.656l-0.943-0.171l-0.628,0.171
	l-0.114-0.228L53.804,42.722z M55.603,42.921l0.914,0.457l-0.657,0.286l0.6,1.285l0.457-0.085l-0.198,0.602l0.027,1.425
	l-0.629,0.486l0.325-0.694l-0.42-0.893l0.267-0.584l-0.971-1.742L55.603,42.921z M55.775,38.694l0.085,1.314l-0.4-0.771
	L55.775,38.694z M56.06,41.55l0.343-0.114l-0.371,1.485l-0.543-0.942l0.4-1.343L56.06,41.55z M56.317,48.177l0.029-0.343
	l-0.543-0.171l1.218-0.031L56.317,48.177z M56.731,53.389l0.015-1.099l0.242,0.385l-0.023,0.357l0.323,1.014L56.731,53.389z
	 M57.831,54.203l-0.543,1.157l-0.4-1.257l0.429,0.4L57.831,54.203z M58.24,56.688l-0.609-0.171l-0.476,0.362l0.324-1.01l0.666,0.251
	L58.24,56.688z M57.726,59.773l-0.323-0.933l0.59,0.266l-0.4-0.647l0.209-0.4l-0.894-0.152l0.971-1.028l0.209,0.323l0.019,1.276
	l0.21,0.99L57.726,59.773z M60.938,34.397c2.146-0.025,3.95,0.725,5.412,2.252c1.609,2.973-0.297,6.597-5.718,10.873
	c-0.231-0.677-0.421-1.76-0.57-3.246c-0.157-1.648-0.265-2.611-0.325-2.891c-0.001-0.04,0.182-0.046,0.55-0.017
	c0.001,0.04-0.188-0.095-0.563-0.406c0.131-0.851-0.032-1.873-0.487-3.068c-0.511-1.314-0.749-2.192-0.709-2.638
	c-0.002-0.04-0.029-0.059-0.08-0.057c-0.018,0-0.028,0.006-0.039,0.011C58.734,34.712,59.573,34.439,60.938,34.397 M65.973,46.565
	c-0.009,0.002-0.018,0.007-0.027,0.009c0.004-0.006,0.008-0.01,0.012-0.015L65.973,46.565z M67.571,44.578L67,44.564l-0.458,0.542
	l-2.699,2.057c0,0-0.671,0.528-0.714,0.557c-0.043,0.028-0.328-0.157-0.371-0.157S62.33,48.02,62.33,48.02l0.171,0.257l2.713-1.714
	l0.9,0.1l-0.143,0.7l-0.485,0.271l-0.375-0.129l-0.025-0.585l-0.729,0.528l-3.084,2.157l0.899-0.843l-0.385,0.086l-0.095-0.455
	l-0.391,0.112l1.843-1.756l2.87-2.799l0.157,0.442l0.343-0.114L66.2,45.035l0.775-0.79L67.571,44.578z M65.043,48.562l-0.186-0.257
	l0.164-0.135L65.043,48.562z M65.157,48.719c-0.028,0.043,0.015-0.671,0.015-0.671l-0.515-0.257l0.129,0.257l-0.757,0.4
	c0,0,0.471,0.086,0.514,0.072c0.043-0.015-0.271,0.242-0.328,0.285c-0.058,0.043,0.985,0.386,0.985,0.386l-1.599-0.2l-0.714,0.714
	l-0.624-0.238l0.924-0.233l0.073-0.584l0.783,0.269l-0.4-0.583l1.029-0.73l1.162,0.422C65.834,48.028,65.186,48.677,65.157,48.719
	 M65.79,56.853c-0.216,3.231-1.289,5.842-3.218,7.835c-0.365-1.641-0.698-3.947-0.998-6.92c-0.434-3.935-0.718-6.324-0.848-7.166
	C64.248,51.018,65.937,53.101,65.79,56.853 M66.695,59.668l0.238,0.276l0.752-0.428l0.001,0.023c0.006-0.041,0.01-0.076,0.019-0.122
	c0.033-0.03,0.068-0.052,0.105-0.067l-0.106-0.224l1.085-0.553l-0.362,0.457l-0.247,1.105l-0.281-0.595
	c-0.024,0.122-0.064,0.287-0.125,0.516c-0.015,0.037-0.039,0.064-0.059,0.095c-0.006-0.004-0.008-0.015-0.012-0.02l0.001,0.051
	l-0.638,0.343l0.343-0.362l-0.505,0.134l-0.247,1.361l-1.162,1.447l0.181-0.638l-0.27-0.162L66,61.906L66.695,59.668z M67,58.592
	l0.399,0.495l-0.438,0.591l0.076-0.566L67,58.592z M67.228,56.917l0.305,0.571l-0.115,0.838l-0.399-0.438L67.228,56.917z
	 M67.914,58.173l-0.229-0.114l0.21-0.228l0.532,0.628c0,0-0.875,0.133-0.932,0.133C67.437,58.592,67.914,58.173,67.914,58.173
	 M68.047,56.174l0.476,0.762l-0.762-0.076L68.047,56.174z M68.599,55.032l0.952,1.142l-0.971-0.057L68.599,55.032z M66.076,63.429
	l-1.209,1.418l0.324-0.618L64.686,64.2l0.552-0.971l-0.047,0.724L66.076,63.429z M64.705,65.428l-0.857,0.771l0.228-0.599
	l0.753-0.467L64.705,65.428z M63.001,66.342l-0.054,0.329l-0.156-0.329l1.162-1.123v-0.276l0.695-0.2l-1.371,1.304l0.057,0.295
	H63.001z M59.059,67.789l-0.438,0.153l-0.173-1.919c0,0,0.478,0.91,0.478,0.967s0.228-0.8,0.228-0.8l0.286,1.828L59.059,67.789z
	 M58.24,68.57c0,0-0.136-0.965-0.114-1.028l0.552,0.609L58.24,68.57z M58.545,64.857l0.057,0.514l0.153,0.59l-0.476-0.323
	l0.057-0.61l-0.229-0.342L58.545,64.857z M57.631,62.781c0.057,0,0.686,0.077,0.686,0.077l0.228,1.352l-0.047-1.693l0.695,1.978
	l-0.21,1.523c0,0-0.191-1.218-0.248-1.237c-0.057-0.019-0.609-0.286-0.609-0.286v-1.009L57.631,62.781z M58.183,59.887l0.267,0.057
	l0.19,0.819L58.183,59.887z M57.879,59.944l0.78,1.352l-0.38,0.533l0.438,0.61l-0.477-0.248l-0.452,0.226l-0.342-0.897l0.737-0.547
	L57.879,59.944z M56.393,61.525l-0.219-0.509l0.867,0.642L56.393,61.525z M56.146,49.005l0.514-0.828c0,0,0.143,0.914,0.143,0.999
	c0,0.086-0.314,1.371-0.314,1.371L56.146,49.005z M56.037,61.684l-0.786-0.94l0.171-2.342l0.267,0.286v0.971l0.495,0.571
	c0,0-0.4-0.019-0.457-0.038C55.67,60.173,56.037,61.684,56.037,61.684 M56.603,67.294L56.45,65.98l-0.399-0.095l0.418-0.247
	l-0.418-1.048l0.019-1.218l0.666,2.589L56.603,67.294z M67.571,41.617l0.19,0.067l-0.162,0.276l0.175,0.146l-0.603,0.425
	L67.571,41.617z M68.256,40.36l0.467,0.238l-0.524-0.017l-0.438,0.284L68.256,40.36z M69.132,39.246c0,0,0.333-0.161,0.305-0.18
	c-0.029-0.02-0.467-0.229-0.467-0.229l-0.028-0.314l0.619-0.019l0.152,0.438c0,0-0.362,0.4-0.324,0.4s0.295,0.161,0.295,0.161
	s-0.295,0.238-0.266,0.267c0.028,0.029,0.209,0.324,0.209,0.324l-0.324,0.209l0.353,0.238l-0.752-0.047l0.333-0.438L69.132,39.246z
	 M69.104,41.684l-0.169-0.158l-0.488,0.215l0.809-0.619L69.104,41.684z M64.924,66.971l0.219,0.247l-0.391,0.057l-0.019,0.505
	l-0.771-0.257C63.991,67.494,64.924,66.971,64.924,66.971 M55.478,71.674c0.161,0.116,0.32,0.172,0.476,0.167
	c0.539-0.196,0.804-0.305,0.799-0.329c0.167,0.001,0.321,0.093,0.458,0.29c0.501-0.699,0.971-0.754,1.409-0.163
	c0.934-0.27,1.51-0.288,1.727-0.053c0.257-0.169,0.754,0.361,1.697,0.371c0.891,0.013,1.49-0.124,1.795-0.416
	c-0.065-0.401,0.325-1.208,0.99-1.752c0.817-0.67,1.314-1.382,1.465-1.588c-0.261,0.049-0.593,0.3-0.999,0.755
	c-0.407,0.416-0.741,0.588-1.005,0.515c1.477-1.375,2.954-3.596,2.954-3.596l-0.471,0.014l0.437-0.535l-0.3-0.133l-1.232,0.822
	l0.712,0.16l0.011,0.362l-0.245-0.294l-0.626,0.08l0.154-0.126l-0.163-0.177l-0.151,0.187l0.68-0.867l-0.546,0.137l0.535-0.5
	l0.467-0.135l0.545-0.198l-0.249-0.416l0.378-0.495l-1.085,0.517l-0.594,1.107c0,0-0.659,0.725-1.221,1.185
	c-0.718,0.546-1.151,0.902-1.303,1.067c0.094-0.325-0.177-0.659-0.177-0.659l0.22-0.15c0,0,0.189-0.124,0.241-0.166
	c0.001,0.04-0.073,0.183-0.073,0.183s-0.074,0.163-0.071,0.244c2.458-1.847,3.966-3.931,4.419-6.281
	c-0.738,1.084-1.242,1.791-1.483,2.192l0.675-1.159l0.747-1.292c0,0,0.188,0.175,0.39-0.073c0.151-0.205,0.254-0.249,0.31-0.13
	c-0.245,0.572-0.361,1.039-0.35,1.401c0.103-0.043,0.153-0.146,0.148-0.307c-0.005-0.16,0.071-0.244,0.228-0.249
	c-0.045,0.243-0.117,0.448-0.217,0.612c-0.15,0.207-0.25,0.411-0.296,0.613c0.257-0.168,0.704-0.989,1.34-2.459l-0.542,0.259
	c-0.062-0.28,0.222-0.43,0.222-0.43l0.468-0.136c0.024-0.886-0.045-1.449-0.045-1.449s0.39-0.072,0.38-0.434
	c0.035-0.525,0.053-0.828,0.051-0.909c-0.056-0.078-0.399-0.169-0.399-0.169l-0.478-0.226c0,0-0.133-0.036,0.389-0.133
	c0.417-0.053,0.577,0.043,0.48,0.287c0.15-0.246,0.058-0.666,0.058-0.666l-0.268-1.08l-0.471,0.014c0,0,0.44-0.113,0.382-0.314
	c-0.059-0.24-0.039-0.401,0.065-0.485c0.104-0.003,0.184,0.054,0.24,0.174c0.004,0.12,0.058,0.179,0.163,0.176
	c-0.007-0.242-0.091-0.421-0.252-0.537c-0.36-0.125-0.56-0.154-0.624-0.104c0.003-0.272-0.242-0.835-0.768-1.727
	c-0.103,0.086,0.853-0.388,0.853-0.388l-0.63-0.041l-0.391,0.072l0.075-0.123c0,0,0.021-0.141-0.084-0.179
	c0.001,0.041-0.025,0.082-0.075,0.124c-0.053,0.001-0.107-0.037-0.161-0.117c0.258-0.129,0.493-0.136,0.706-0.021
	c-0.434-0.47-0.491-0.65-0.491-0.65s-0.17,0.468-0.379,0.434c0.256-0.168,0.252-0.288-0.011-0.361
	c-0.265-0.072-0.32-0.172-0.167-0.297c-1.427-0.441-2.14-0.64-2.14-0.6c0.159,0.035,0.672-0.302,1.541-1.014
	c-0.213-0.114-0.447-0.047-0.701,0.203c-0.357,0.333-0.64,0.503-0.849,0.509c0.252-0.329,0.814-0.79,1.686-1.381
	c0.77-0.547,1.225-1.085,1.366-1.614c0.213,0.155,0.496-0.034,0.847-0.569c-0.315-0.031-0.474-0.066-0.475-0.107
	c0.156-0.044,0.359-0.232,0.611-0.562c0.2-0.288,0.381-0.394,0.54-0.319c-0.049,0.122-0.176,0.268-0.379,0.434
	c-0.258,0.17-0.411,0.315-0.458,0.438c0.261-0.009,0.441-0.114,0.54-0.319c0.15-0.246,0.303-0.372,0.46-0.377
	c-0.07-0.561,0.123-1.111,0.578-1.649c0.606-0.744,0.957-1.239,1.055-1.483c-0.26,0.089-0.564,0.42-0.913,0.995
	c-0.105,0.208-0.234,0.354-0.379,0.462l0.002,0.003l-0.024,0.016c-0.02,0.013-0.036,0.035-0.056,0.047
	c0-0.003-0.003-0.005-0.004-0.008l-0.595,0.395l0.579-0.121l-2.171,2.413l-1.093,0.507l0.186-0.421l0.436-0.157
	c0,0-0.486-0.079-0.529-0.079s0.314-0.521,0.314-0.521l0.564,0.164l-0.064-0.214l0.621-0.193l-0.964,0.093l0.522-0.557
	c0,0-1.928,1.557-1.964,1.578c-0.035,0.021,1.139-1.608,1.139-1.608l0.632-0.234l0.164-0.464l-0.828-0.065l0.985-1.028l-0.207,0.564
	l0.714-0.235l-0.685,0.564l0.178,0.071l0.857-0.885l-0.942-0.3l0.742-0.943l-0.143,0.9l0.886,0.071l-0.521,0.857l0.592-0.392
	l0.484,0.061c-0.093-0.093-0.217-0.158-0.318-0.195c0.278-0.235,0.548-0.31,0.81-0.204c-0.008-0.282-0.298-0.314-0.867-0.094
	c-0.016-0.523,0.246-1.337,0.79-2.443c0.104-0.003,0.185,0.096,0.244,0.295c0.005,0.162,0.111,0.199,0.318,0.111
	c-0.001-0.04-0.085-0.198-0.25-0.475c-0.11-0.118-0.034-0.22,0.226-0.309c0.057,0.16,0.111,0.238,0.164,0.236l-0.007-0.241
	c-0.059-0.2-0.115-0.299-0.166-0.297c-0.154,0.125-0.333,0.272-0.537,0.439c-0.008-0.281-0.114-0.278-0.314,0.01
	c0.043-0.283-0.016-0.503-0.177-0.659c0.104-0.004,0.387-0.194,0.846-0.571c-0.316-0.071-0.399-0.229-0.249-0.475
	c0.097-0.245-0.013-0.402-0.33-0.474l0.696-0.384c0.038-0.02,0.061-0.019,0.094-0.033c-0.643-0.281-0.973-0.444-0.974-0.484
	l-0.008-0.241c0.313-0.05,0.469-0.115,0.466-0.196c-0.262,0.049-0.446-0.006-0.555-0.164c-0.216-0.195-0.376-0.291-0.481-0.288
	c0.101-0.124,0.204-0.167,0.311-0.13c0.107,0.078,0.161,0.116,0.161,0.116s0.023-0.062,0.072-0.184
	c-0.553-0.95-1.803-1.576-3.75-1.879c0.158,0.035,0.194-0.093,0.19-0.214c-1.739-0.349-4.169-0.531-7.369-0.715
	c-3.359-0.179-5.723-0.388-7.092-0.629c-0.051,0.042-0.337,0.131-0.856,0.268c0.312,10.185,1.621,23.018,3.93,38.501
	C55.237,71.481,55.369,71.556,55.478,71.674 M68.933,120.959l-0.559-0.869l-0.155,0.714L68.933,120.959z M66.979,89.014l-0.54,1.642
	l0.461,0.588L66.979,89.014z M67.705,89.386l0.24,0.11l-0.012-0.383L67.705,89.386z M63.913,87.718L63.913,87.718l0.771-1.694
	l-0.096-0.406l-0.787,0.664L63.624,87.3l-0.056,0.323l-0.999,1.631c0,0,0.079,0.696,0.001,0.717
	c-0.078,0.021-0.382-0.023-0.382-0.023l0.178-0.271l-0.419,0.155l0.11,0.305l-0.217,2.137L63.913,87.718z M62.119,86.132
	l0.432,0.988l0.063-0.55L62.119,86.132z M54.242,76.758l0.342-0.153l0.039-0.228H54.28L54.242,76.758z M65.914,81.594l0.056,1.084
	l0.129-0.428l0.673-2.229L65.914,81.594z M45.415,99.871l-1.092,1.984l0.288,0.7L45.415,99.871z M45.102,106.272l-0.061-1.248
	l-0.416,0.9L45.102,106.272z M70.788,91.861l0.112,0.727l0.277,0.211l0.448-0.013l-0.478-0.936l-0.17,0.298L70.788,91.861z
	 M69.66,118.168l12.66,11.513l-4.76,3.78l-5.788,4.965L66.678,140l-1.633-4.976l0.647-1.2l-0.849,0.584l-0.284-0.865l2.589-1.359
	c0,0-1.693,0.446-2.791,0.744l-3.225-9.825l-0.03,0.016l-1.451-4.38l0.035-0.04l-1.489-4.535l3.626-3.123l2.386,2.171
	c0.598-1.575,0.786-2.101,0.786-2.101l0.431-0.598l0.516-0.746l0.461-2.572l0.482-1.152c0,0-0.091-1.375-0.127-1.928
	c0.719-3.919,0.479-7.858-0.721-11.816c-0.39-1.257-0.857-2.354-1.39-3.343l-3.96,8.417l-4.217-0.924l-1.613-11.067
	c-1.025,0.581-1.974,1.352-2.703,2.542c-0.456,0.793-1.137,2.056-2.042,3.789c-0.849,1.634-1.501,2.848-1.956,3.641
	c-1.323,4.777-1.341,9.586-1.076,14.095l-3.57,0.686l-0.497,0.981l1.483-0.465l2.575-0.823c0.001,0.006,0.001,0.011,0.002,0.017
	l3.915-1.226l1.297,1.887l-3.994,5.737c0.254,0.802,0.605,1.575,1.053,2.318c0.302,0.237,0.69,0.603,1.169,1.105
	c0.557,0.567,0.958,0.969,1.206,1.205c1.046,0.894,2.076,1.301,3.094,1.221c0.544-0.057,1.535-0.587,2.958-1.575l1.433,3.164
	c-5.418,1.09-8.716,0.558-11.557-0.12c-1.308-0.301-2.462-0.784-3.485-1.388l-1.552,2.229l-4.744-5.334l-1.245-4.653l-0.286-1.209
	l2.509-0.786c-0.261-2.631-0.103-5.557,0.481-8.78c-0.216-0.196-0.373-0.424-0.373-0.424l-0.28-0.36l0.633,0.127l-0.339-0.41
	l-0.315-0.374l0.445-0.16l-0.2-0.651l0.719-0.023l-0.465-0.497l0.265-0.154l-0.22-1.309l0.423-1.245l0.413-0.826l0.045-1.463
	c0,0,0.351,0.155,0.418,0.347c2.629-6.12,4.734-10.175,6.775-12.04c2.146-2.787,4.382-4.399,6.703-4.87l-0.628-4.305
	c0.147-0.049,0.296-0.091,0.444-0.134c0.022-0.022,0.847-0.807,2.782-0.538c0.061-0.006,0.122-0.014,0.183-0.019l0.283-0.323
	l0.388,0.104l0.255-0.356l0.215,0.284c0,0,1.512,0.157,1.951-0.002c0.43-0.156,1.724,0.138,2.284,0.436
	c4.594,0.6,8.332,2.145,8.332,2.145l-3.096,6.579c0.442,0.463,0.718,0.945,0.77,1.31c-0.06,0.002-0.186-0.214-0.186-0.214
	l-0.184-0.14l0.285,0.503l0.375,0.5L68.411,84.7L68.4,84.335c0,0,2.061,2.713,2.254,3.146c-0.303-0.088-0.527-0.174-0.527-0.174
	l-0.281,0.199l0.518,0.205l0.089,0.05l-0.771,0.261l0.943,0.138l0.016,0.018l0.071,1.201l0.849,1.289l0.316,1.525l0.597,1.882
	l0.523-0.528l0.31,1.306l0.324,1.469l-0.54-0.945l-0.419-0.723c0,0,0.174,0.847,0.329,1.962c0.149,0.971,0.352,1.72,0.609,2.247
	c-0.221-0.037-0.363-0.066-0.445-0.088c0.408,1.82,0.543,3.36,0.403,4.62c0.294-0.203,0.396-0.743,0.31-1.617
	c-0.084-0.776,0.022-1.218,0.32-1.325c-0.109,0.394-0.047,0.977,0.037,1.753c0.151,1.019,0.128,1.725,0.081,2.116
	c0.012,0.39-0.172,1.273-0.548,2.648c-0.133,0.418-0.24,0.855-0.251,1.296c-0.004,0.17,0.021,0.351,0.062,0.516
	c0.036,0.145,0.138,0.284,0.122,0.437c-0.016,0.149-0.139,0.278-0.212,0.403c-0.085,0.142-0.17,0.284-0.251,0.428
	c-0.234,0.42-0.46,0.844-0.686,1.268c0.24,0.042,0.732-0.869,0.731-0.476c-0.217,1.463-1.141,2.816-1.722,4.161
	c-0.073,0.168-0.147,0.347-0.126,0.529c0.012,0.099,0.052,0.199,0.031,0.297c-0.017,0.077-0.069,0.142-0.121,0.201
	c-0.297,0.338-0.644,0.631-1.027,0.867c0.116-0.035,0.246-0.01,0.341,0.064C70.358,117.389,70.021,117.79,69.66,118.168
	 M78.591,83.011c-0.004,0.014-0.003,0.026-0.008,0.04C78.559,83.052,78.565,83.037,78.591,83.011 M79.414,98.96l0.381-0.647v0.837
	L79.414,98.96z M82.917,111.607l-0.342,0.377l-0.381-1.599l0.381-0.419l-0.19-0.495l-1.904-2.057l1.409,0.762
	c0,0-0.305-1.219-0.457-1.181c-0.152,0.039-0.686,0-0.686,0l0.61-0.837l-0.724-2.552l-0.609,2.285l0.457-4.151l-0.762-0.114
	l0.609-0.838l-0.342-2.932l-0.762-0.534l0.571-0.342l-0.8-0.876l0.572-0.038l-0.762-1.105l0.876,0.305l-0.267-1.371l-0.571,0.343
	l0.038-2.59l0.648,0.571l0.076-0.647l-0.8-0.457l0.114-0.838l0.419,0.495l0.195-1.784l-0.766,0.375l0.343-1.218l-0.952-1.6
	l0.876,0.076l-0.115-0.914l-0.533-0.838l0.609-1.637l-0.647-0.381l0.571-0.724l-0.761-1.599l0.678,0.357l-1.173-3.746l1.028,1.104
	l-0.038-1.638l-0.762-0.076l0.99-0.876l0.097-0.611l-0.782-0.531l0.228-0.762l-0.495-1.523l0.686-0.038l-0.952-1.866l0.783-0.088
	l-0.441-1.55l0.343-0.99l-0.8-0.228l0.381-3.39l0.381,1.752l0.305-1.333l0.228,4.113l0.229,2.59l0.152,1.485l-0.381,0.647
	l-0.038,0.914l0.8,0.914c0,0-0.482,0.855-0.533,1.067c-0.051,0.211,0.076,1.98,0.076,1.98l-0.153,1.142l0.495,2.209l-0.155,0.964
	l0.232,1.435L79.3,84.869l0.267,2.59l0.571-0.686l-0.381,1.295l0.533-0.266l-0.538,2.067c0,0,0.386,3.531,0.386,3.721
	c0,0.191,0.305,4.646,0.419,4.456c0.114-0.19,0.533-0.99,0.533-0.99l-0.038,1.828l0.495,0.533h-0.609l0.571,1.066
	c0,0-0.571-0.495-0.533-0.381c0.038,0.115,0.19,2.552,0.19,2.552l0.724,3.389l0.381,2.057l0.19-0.914l0.838,2.475
	c0,0-0.392-0.225-0.606-0.361c0.002,0.008,0.005,0.02,0.007,0.029c0.264,0.376,0.713,1.551,0.713,1.551l-0.381-0.038l0.762,0.723
	l-0.419,0.038l0.99,2.285L82.917,111.607z M77.853,86.126l-0.726-0.365l0.459-0.054l0.305-0.381L77.853,86.126z M76.977,72.454
	l-0.387-0.751l0.501-0.81l-0.19,0.762L76.977,72.454z M77.701,63.124l0.152,0.533l-0.495,0.572L77.701,63.124z M94.019,59.03
	l0.686,2.114l-0.857-1.085L94.019,59.03z M94.56,38.32l0.038-1.458c0,0,0.263,0.979,0.579,2.14l-0.361,0.773
	c-0.03-0.165-0.151-0.758-0.151-0.758l-0.348-0.877L94.56,38.32z M96.554,44.18c-0.004,0.135,0.052,0.244,0.058,0.428
	c0.06,0.591-0.762,1.25-0.762,1.25S96.481,44.863,96.554,44.18 M90.843,116.17c0.556-0.172,1.113-0.423,1.521-0.851
	c0.439-0.46,0.686-1.064,1.01-1.603c0.381-0.636,0.764-1.266,1.163-1.889c0.305-0.476,0.585-0.978,0.739-1.526
	c0.163-0.583,0.16-1.198,0.228-1.796c0.088-0.777,0.163-1.556,0.232-2.335c0.086-0.967,0.161-1.935,0.231-2.904
	c0.083-1.157,0.158-2.315,0.229-3.474c0.082-1.347,0.157-2.695,0.228-4.043c0.08-1.537,0.155-3.075,0.226-4.613
	c0.058-1.268,0.111-2.536,0.164-3.804l-2.795-0.839l2.843-0.256c0.004-0.094,0.008-0.189,0.012-0.283
	c0.079-1.917,0.153-3.834,0.223-5.751c0.078-2.107,0.151-4.214,0.222-6.322c0.035-1.044,0.068-2.088,0.102-3.133
	c0.017-0.543,0.035-1.087,0.051-1.63c0.009-0.27,0.018-0.54,0.026-0.809c0.008-0.253,0.07-0.569,0.025-0.817
	c-0.411-2.266-0.438-4.603-0.395-6.898c0.012-0.612,0.031-1.224,0.057-1.835c0.013-0.301,0.006-0.602-0.013-0.902
	c-0.075-1.165-0.345-2.326-0.441-3.492c-0.128-1.543-0.155-3.092-0.141-4.64c0.01-1.068,0.039-2.135,0.067-3.203
	c0.03-1.125,0.044-2.282,0.154-3.415c0.081-0.838,0.152-1.587-0.235-2.37l0.232-0.769l0.41-1.282c0,0-0.544-1.717-0.395-2.4
	c-0.68,0.106-2.64-0.427-2.64-0.427s-1.501-0.164-1.916,0.186c0.015,0.507-0.102,0.173-0.352-1.005
	c-0.702,0.498-1.352,0.934-2.07,1.459c0.199,0.927,0.402,4.729,0.606,11.407c0.401,13.106,0.453,23.895,0.158,32.365
	c-0.441,13.554-0.615,19.695-0.526,18.422c-0.438,6.614-1.444,11.427-3.018,14.437c-2.178-4.164-3.667-11.608-4.465-22.331
	c-0.071-0.929-0.501-8.701-1.29-23.319c-0.619-11.828-0.919-21.635-0.901-29.423c-1.909-0.956-3.987-1.147-6.233-0.57
	c0.126-0.087,0.107,0.716-0.054,2.414c-0.004,0.293-0.005,0.594-0.007,0.89L73.656,41.8l0.116,0.405h-0.406l0.464,0.58l-0.348,0.463
	l0.621,2.99c0.05,11.886,0.581,25.536,1.595,40.963c0.964,14.781,2.595,24.083,4.891,27.904c0.569,0.947,1.465,1.584,2.522,1.886
	c1.379,0.393,2.872,0.28,4.266,0.038C88.538,116.827,89.718,116.519,90.843,116.17 M114.051,114.859l-2.476,0.476l-1.161,0.477
	L114.051,114.859z M106.072,118.496l2.209-0.571c0,0-2.628,0.4-2.513,0.381c0.114-0.019,0.78-0.533,0.78-0.533l-1.371,0.704
	l-1.79,0.438l0.096,0.324l-3.885,1.276l-0.609-0.153l0.114,0.324l-1.257-0.038l0.058,0.381l-3.104,0.876l-0.229-0.21l-0.419,0.381
	l-0.342,0.019l-0.077,0.286l3.79-0.838l0.514,0.286l0.342-0.61l1.733-0.476l4.989-1.828l-0.019,0.438l1.714-0.761L106.072,118.496z
	 M93.714,121.391l0.648-0.057l0.114-0.438L93.714,121.391z M93.429,122.723l-0.21-0.552l-0.419,0.591L93.429,122.723z
	 M94.743,121.257l3.484-1.028l-0.914-0.152l-2.133,0.838l-0.266-0.096C94.895,120.877,94.743,121.257,94.743,121.257
	 M101.067,118.681c-0.708,0.291-1.412,0.587-1.469,0.615c0,0,0.8,0.019,0.857,0.038c0.057,0.019,3.008-0.971,3.008-0.971
	s-0.78-0.267-0.894-0.267c-0.058,0-0.78,0.289-1.498,0.584C101.069,118.68,101.067,118.68,101.067,118.681
	C101.067,118.68,101.067,118.681,101.067,118.681 M102.938,118.128l0.048-0.015c-0.007-0.003-0.018-0.004-0.02-0.009
	C102.953,118.112,102.948,118.12,102.938,118.128 M105.701,117.34l0.514-0.271l-0.318-0.063L105.701,117.34z M116.38,116.569
	c0.049,0.34,0.063,0.686,0.082,1.029c-0.297-0.033-0.597-0.039-0.894-0.069c-0.086-0.009-0.177-0.018-0.24-0.084
	c-0.052-0.055-0.062-0.124-0.073-0.195c-0.002-0.014-0.025-0.135-0.01-0.14c-2.175,0.59-6.953,2.108-14.333,4.555
	c-0.878,0.283-2.975,0.945-6.292,1.985c-2.433,0.773-4.386,1.425-5.858,1.959c-0.671-0.444-1.313-1.316-1.927-2.616
	c3.067-1.087,8.8-3.026,17.199-5.816c1.255-0.416,2.949-0.929,5.082-1.54c0.949-0.263,1.896-0.533,2.837-0.821
	c0.792-0.243,1.594-0.479,2.345-0.833c0.171-0.081,0.449-0.213,0.592-0.018c0.262,0.357,0.526,0.712,0.78,1.075
	c0.184,0.263,0.369,0.531,0.505,0.823C116.28,116.087,116.345,116.324,116.38,116.569 M102.009,67.456l0.572-0.193l-0.029,0.286
	l0.15,0.078l0.207,0.429l-0.321,0.114l-0.186-0.428l-0.021,0.757l-0.415-0.272L102.009,67.456z M102.626,59.716l0.277,0.184
	l-0.353,0.501l-0.153-0.304L102.626,59.716z M102.645,56.726l0.304,0.495l0.495,0.21l0.134,0.8l-0.606-0.382l0.193-0.204
	l-0.596-0.081L102.645,56.726z M103.102,56.669l0.514,0.038l-0.057,0.4l-0.153-0.209l-0.323,0.133L103.102,56.669z M104.094,48.248
	l-0.121,0.464l0.043,0.257l-0.764-0.235L104.094,48.248z M104.151,43.728l0.343-0.164l-0.243,0.678l-0.264-0.392l-0.114-0.6
	L104.151,43.728z M104.894,47.72l0.236,0.243l0.021,0.335l-0.328-0.078l-0.322-0.5H104.894z M105.123,46.149l0.585-0.129
	l0.029,0.793l-0.193-0.1l-0.072,1.714c0,0-0.428,0.564-0.407,0.542c0.022-0.021,0.243-0.942,0.222-0.964
	c-0.022-0.021-0.443-0.507-0.443-0.507l0.328-0.357l0.229-0.728L105.123,46.149z M105.615,52.026l-0.335-0.022l-0.2,0.586
	l-0.129-0.2l-0.321,0.171l-0.05-0.414l0.493-0.186l-0.507-0.414l0.207-0.585l0.307,0.221l-0.164,0.3L105.615,52.026z
	 M105.137,53.147l0.014,0.121l0.414-0.207c0,0-0.528,0.992-0.528,0.971c0-0.021-0.143-0.478-0.143-0.478s0.136-0.2,0.136-0.222
	c0-0.021-0.036-0.314-0.036-0.314l-0.507-0.364l1.171,0.093L105.137,53.147z M105.044,56.067l0.364-0.221l-0.193,0.742l-0.185-0.171
	l-0.157,1.799l-0.307-0.114l0.264-1.107l-0.236-1.199l0.271-0.293l-0.114-0.464l0.179-0.272l0.007,0.1l0.15-0.107l-0.007,0.265
	l0.542,0.157l-0.4,0.557l-0.05-0.336l-0.214,0.386L105.044,56.067z M104.206,56.841l0.514-0.038l-0.285,0.304v0.895L104.206,56.841z
	 M104.673,59.287l0.164,0.672l-0.557,0.185l0.307-0.271l-0.189-1.163l-0.018,0.006l0.014-0.028l0.004,0.022l0.46-0.158l-0.235,0.45
	l0.557,0.114L104.673,59.287z M104.435,54.232l0.076-1.009l0.19,0.209l-0.019,0.552L104.435,54.232z M104.911,54.441l-0.781,0.324
	l0.191-0.343L104.911,54.441z M104.644,61.851c0.007-0.022,0.057-0.429,0.057-0.429l0.372,0.672l-0.514-0.079l0.121,0.136
	l-0.178,0.343l0.214-0.001l-0.407,0.579l-0.05-1.371l-0.122,0.95l-0.167-0.273l-0.226,0.101l0.058-0.328l0.164,0.095l-0.193-0.295
	l0.443-0.343l-0.265-0.257l0.315-0.079l-0.15-0.392l0.307-0.329l-0.2,0.022l0.171-0.129l-0.421-0.264l0.9,0.036
	c0,0-0.35,0.571-0.329,0.564c0.022-0.007,0.386,0.071,0.386,0.071l0.15,0.479l-0.586-0.022
	C104.494,61.308,104.637,61.872,104.644,61.851 M104.88,64.271l-0.329-0.193l-0.393,0.145l0.179-0.58l-0.257-0.478l0.393,0.05
	l0.457,0.649L104.88,64.271z M103.894,68.256l0.15-0.443l0.186,0.043l0.2,0.25l0.221-0.15l0.186,0.278L103.894,68.256z
	 M103.794,68.92l0.186-0.243l-0.057-0.228l0.578,0.578L103.794,68.92z M103.637,67.535l0.457-0.457l-0.056-0.333l-0.579-0.481
	l0.738-0.788l-0.204-0.191l-0.292-0.057l0.079-0.614l0.217,0.491l0.14-0.441l-0.121-0.164l0.085-0.179l0.436-0.028l-0.143,0.8
	l0.2-0.058c0,0-0.271,0.565-0.278,0.615c-0.006,0.04-0.012,0.774-0.014,1.052l0.206,0.618l-0.664,0.286l-0.128,0.321L103.637,67.535
	z M103.137,66.071l-0.049-0.307l0.178,0.121L103.137,66.071z M102.778,61.106l0.171-0.267l0.514,0.724l-0.571,0.247L102.778,61.106z
	 M103.173,63.686l-0.293,0.407l-0.157,0.307l-0.014-0.578L103.173,63.686z M103.102,66.406l-0.029-0.164l0.136-0.043L103.102,66.406
	z M109.042,40.572l-0.235,0.15l-0.114-0.65l0.135-0.592l-0.264-0.029l-0.043-0.885l0.3,0.264l-0.121-0.607l0.178-0.179l-0.057,0.179
	l0.029,0.207l0.293,0.371l-0.108,0.293l0.443,0.864l-0.257,0.179l0.107,0.321l0.65-0.036l-0.457,0.393l0.086,0.393l0.65,0.157
	c0,0-0.2,0.592-0.215,0.621c-0.014,0.029,0.586,0.557,0.586,0.557l-0.279,0.35l0.643,0.864l-0.314,0.457
	c0,0,0.157,0.278,0.164,0.307c0.007,0.028,0.243-0.35,0.243-0.35l0.485,1.507l-0.385,0.478l-0.15-0.214l-0.471,0.021l0.014-0.242
	l-0.357,0.092c0,0-0.064-0.478-0.086-0.492c-0.021-0.015,0.557-0.386,0.557-0.386l-0.642,0.079l0.392-0.379l-0.314-0.114
	l0.271-0.543l-0.392-0.821l-0.565-0.164c0,0,0.2-1.028,0.207-1.057c0.008-0.029-0.499-0.257-0.499-0.257s-0.129-0.357-0.129-0.379
	c0-0.021-0.235,0.279-0.235,0.279l-0.315-0.628l0.607-0.108L109.042,40.572z M111.283,46.561l0.087-0.555l0.886,0.071
	L111.283,46.561z M112.884,48.891c0,0-1.414-0.186-1.356-0.2c0.057-0.014,0.299-0.557,0.299-0.557l-0.728-0.114l0.243-0.557
	l-0.357-0.472l1.2-0.385l-0.329,0.914l0.643,0.457l-0.3,0.214L112.884,48.891z M113.26,49.567l-0.333,0.752l0.686,0.647
	l-0.296,0.191l0.543,0.504l-0.209,0.286l0.495,0.476l-0.429-0.086l0.457,0.724l0.353,0.057l-0.324,0.447l0.476,0.296l-0.314-0.029
	l0.409,0.933l0.457,0.371l-0.505,0.315l1.095,1.799l-0.409-0.029l0.428,0.705l0.305,0.162l-0.409,0.333l0.457,0.086l-0.21,0.733
	l0.476,0.419l-0.41,0.169l0.229,0.497l0.276-0.209l0.638,1.523l0.01,0.99l0.152-0.238l0.314,0.933l-0.428-0.39l-0.027,0.36
	l0.293,0.497l0.619,0.609l-0.323,0.466l0.38-0.019l-0.165,0.999l-0.244-0.132l0.095,0.39h0.305l-0.229,0.619l-0.771-0.247
	l0.353-0.134l-0.143-0.124l0.438,0.086l-0.286-0.162l0.028-0.504l-0.266-0.238l0.229-0.219l-0.038-0.657l-0.286-0.362l-0.413,0.4
	l-0.168-0.314l0.362-0.591l-0.276-0.666l-0.324-0.41l0.343-0.209l-0.933-0.476l0.6,0.048l-0.515-1.181l0.686,0.352l-0.486-0.628
	l-0.257-0.409l-0.523-0.162l0.666-0.438l-0.4-0.029l-0.324-0.79l0.362-0.657l-0.514-0.704l-0.219,0.085l0.419,0.257l-0.257,0.305
	l0.381,0.086l-0.647,0.619l-0.172-0.772l0.438-0.18l-0.533-0.305l0.181-0.333l0.352-0.077l-0.104-0.428l-0.248-0.514l-0.409,0.143
	l0.123,0.371l-0.419-0.048l0.019-0.599l0.4-0.172l0.038-0.562c0,0-0.419-0.228-0.457-0.238c-0.038-0.009,0.286-0.257,0.333-0.266
	c0.048-0.01-0.228-0.514-0.228-0.514l-0.771-0.076l0.581-0.343l-0.153-0.267l-0.619,0.381l-0.18-0.676l0.361,0.076l0.048-0.171
	l-0.409-0.286l0.333-0.209l0.085-0.714c0,0-0.513,0.057-0.58,0.066c-0.067,0.01-0.505-0.637-0.505-0.637l0.057-0.791l0.324-0.466
	l-0.619,0.162l0.343-0.362l-0.305-0.01l-0.257-0.533l0.505,0.076l-0.143-0.466l0.876,0.143L113.26,49.567z M116.992,68.846
	l0.038-0.742l-0.295-1.029h-0.514l0.457-0.419l-0.124-0.409l-0.371-0.505l0.152-0.276l-0.371-0.333l0.076-0.447l-0.295,0.047
	c0,0-0.009-1.399-0.019-1.428c-0.009-0.028-0.476-0.314-0.476-0.314l0.248-0.191l-0.924-1.77l0.286-0.372l-0.305-0.466l0.658,0.388
	l0.047,0.554l1.075,2.952l-0.019,0.552l1.199,4.197l0.239-0.246l0.038,1.009L116.992,68.846z M114.169,58.745l-0.428-0.186
	l0.014-0.9l-0.756-2.642l-0.262,0.222l-0.081-1.107l-0.549-0.064c0,0,0.516-0.263,0.454-0.278c-0.062-0.015-0.548-0.272-0.548-0.272
	l0.286-0.329l-0.543-1.528l-0.271,0.2l-0.443-0.357l0.571-0.171l-0.642-0.843l0.15-0.555l0.87,0.371l-0.435,0.341l0.586,0.115
	l-0.357,0.357l0.114,0.357l0.143-0.2l0.428,1.542l0.386,0.643l1.985,6.483l-0.529-0.342L114.169,58.745z M111.456,52.161
	l0.243-0.214l0.1,0.957L111.456,52.161z M110.899,46.077l0.471,0.629l-0.457-0.186L110.899,46.077z M109.895,44.017
	c0,0,0.094,0.349,0.195,0.574c-0.01,0-0.023-0.004-0.033-0.003c-0.045-0.092-0.198-0.199-0.314-0.442
	C109.782,44.117,109.895,44.017,109.895,44.017 M109.477,43.709l0.459-0.146l-0.06,0.224L109.477,43.709z M108.757,42.293
	l0.171-0.314l0.543,0.071l-0.571,0.429L108.757,42.293z M120.596,41.516l0.029,1.22l0.399,0.442l-0.642,0.457l0.271-0.499
	l-0.328-0.457L120.596,41.516z M101.615,70.197c0.357,0.031,0.717,0.027,1.075,0.016c0.573,0.027,0.97,0.059,1.193,0.096
	c0.083-0.135,0.19-0.269,0.317-0.406c0.228,0.257,0.607,0.378,1.134,0.362c0.749-0.023,1.277,0.005,1.589,0.083
	c0.028-0.484,0.053-1.125,0.074-1.918c-0.031-1.012-0.034-1.805-0.008-2.379c0.086-1.499,0.206-3.331,0.361-5.495
	c0.063-0.794,0.198-2.163,0.402-4.108c0.132-1.458,0.218-2.957,0.259-4.501c0.151-3.704,0.281-5.955,0.389-6.751
	c0.009,0.308,0.103,0.525,0.284,0.652l0.64,1.5l0.242-0.734l-0.481-0.451l-0.185-1.171l0.223,0.116l0.122-0.334l-0.488-0.482
	l0.129,0.529c0.005,0.023-0.557,0.228-0.557,0.228l0.426-1.185l-0.426-1.057l0.214-0.671c0,0,0.028,0.371,0.028,0.414
	c0,0.043,0.971,1.757,0.971,1.757l-0.114,0.828l0.743,1.214l-0.186,0.271l0.629,0.314l-0.229,0.714l0.457,0.743l0.057,0.4
	l0.428-0.357l-0.199,0.642l0.657,0.4l-0.686-0.157l-0.028,0.4l-0.829-0.343l-0.3-0.671l0.4,0.086l-0.228-0.343l0.543,0.172
	l-1.115-1.243l-0.325,0.283c0.411,1.021,2.257,6.89,5.546,17.625c0.981,3.318,1.723,5.255,2.226,5.813
	c0.085-0.092,0.48-0.148,1.184-0.169c0.039-0.133-0.007-0.22-0.14-0.26c-0.133-0.04-0.159-0.127-0.074-0.262
	c0.132-0.005,0.222,0.102,0.274,0.322c0.094,0.217,0.208,0.324,0.34,0.32c0.262-0.053,0.456-0.235,0.578-0.547
	c0.05,0.219,0.054,0.351,0.012,0.396c0.393-0.1,0.899-0.116,1.518-0.046c0.662,0.024,1.212,0.007,1.651-0.051
	c0.129-0.092,0.125-0.202-0.01-0.329c-0.135-0.085-0.137-0.151-0.006-0.199c0.085-0.047,0.306-0.053,0.66-0.02
	c0.485,0.029,0.815,0.019,0.99-0.03c0.087-0.003,0.128-0.114,0.122-0.334c-0.005-0.176,0.034-0.287,0.121-0.334
	c0.01,0.308,0.033,0.373,0.073,0.195c0.123-0.268,0.252-0.381,0.385-0.341c-0.316-0.094-0.167-10.409-0.212-11.35
	c-0.22-4.56-0.176-9.418-0.993-13.907c-0.085-0.468-0.188-0.944-0.13-1.417c0.045-0.378,0.193-0.751,0.145-1.129
	c-0.022-0.179-0.088-0.349-0.131-0.524c-0.226-0.918,0.147-1.898,0.066-2.839c-0.036-0.424-0.706-1.6-0.679-1.812
	c0.248-1.945,0.074-3.327-0.523-4.145c0.113,0.154,0.305-0.34,0.312-0.377c0.048-0.242,0.01-0.624-0.046-0.86
	c-0.095-0.391-0.486-0.644-0.743-0.932c-0.163-0.182-0.316-0.372-0.467-0.578c-0.529-0.027-1.37-0.156-2.522-0.385
	c-0.931-0.192-1.792-0.276-2.584-0.251c1.489,14.152,1.593,21.821,1.593,21.821s-0.005,2.004-0.015,6.013
	c-3.341-9.852-6.724-18.955-10.152-27.308c-0.153,0.366-0.237,0.582-0.252,0.65c-0.275-0.593-0.197-0.637-0.214-0.768
	c-2.266-0.679-3.703-0.832-4.308-0.463c-0.014,0.009,0.162,0.981,0.154,1.076c-0.01,0.116-0.114,0.217-0.183,0.321
	c-0.125,0.188-0.378,0.547-0.195,0.772c0.117,0.143,0.23,0.203,0.237,0.408c0.019,0.626-0.019,1.259-0.035,1.884
	c-0.022,0.841-0.05,1.683-0.08,2.524c-0.038,1.052-0.081,2.104-0.126,3.156c-0.054,1.263-0.111,2.526-0.171,3.788
	c-0.07,1.474-0.142,2.948-0.217,4.421c-0.085,1.684-0.173,3.369-0.262,5.053c-0.101,1.895-0.204,3.79-0.308,5.685
	c-0.116,2.107-0.234,4.212-0.354,6.318c-0.052,0.913-0.104,1.826-0.156,2.739c-0.027,0.463-0.053,0.927-0.08,1.391
	c-0.014,0.234-0.039,0.471-0.041,0.705c0,0.141,0.012,0.285-0.007,0.425c-0.012,0.082-0.112,0.282-0.059,0.357
	C101.099,70.11,101.337,70.173,101.615,70.197 M55.206,101.167l0.462,0.607l0.684-0.819L55.206,101.167z M53.156,106.346l0.644-0.94
	l-1.272,0.149c-0.005-0.006-0.011-0.013-0.015-0.019c-0.181-0.231-0.359-0.473-0.441-0.754c-0.268-0.919,0.64-2.698,0.891-3.596
	c0.217-0.776,3.42-1.524,3.42-1.524s4.257,1.06,4.717,2.847c0.46,1.788-1.952,5.71-3.105,6.409
	C56.368,109.904,54.366,107.821,53.156,106.346 M84.642,32.91l-0.99,3.158l1.281,2.279l2.271,3.865l-1.332-6.178l2.971-5.094
	l-3.193-1.243l-0.168,0.538l-0.475,0.124l1.889,1.385l-2.317-0.43l0.269,0.423l-1.262,0.019L84.642,32.91z M89.202,27.211
	l1.675,3.238l-3.275-1.523L89.202,27.211z M90.398,24.563l2.642-4.745c0.9,3.654,0.953,4.35,0.96,5.094
	c0.004,0.507-2.032,3.354-2.032,3.354l4.751-1.73l2.265-4.919l-1.897-6.065l-6.384-5.864l0.999,5.572l-1.055,2.543l-5.039,4.098
	l1.724,3.702L90.398,24.563z M72.712,91.478l0.415,1.815l-0.495-0.775L72.712,91.478z M74.343,98.99l-0.29-0.649l-0.245,0.811
	l0.286,0.503L74.343,98.99z M67.163,65.459l0.454-0.26l-0.38,0.434L67.163,65.459z M71.034,37.684
	c0.023,0.011,0.039,0.018,0.063,0.028c0.01,0.323,0.067,0.503,0.174,0.539C71.444,37.734,71.357,37.557,71.034,37.684 M73.477,5.864
	c-0.045-0.706-0.08-1.053-0.103-1.046c0.08-0.413,0.399-0.567,0.966-0.452c0.069,0.016,0.134,0.059,0.196,0.115
	c0.093-0.406,0.434-0.559,1.038-0.444c0.448,0.096,0.77,0.926,0.967,2.489c0.073,0.467,0.137,1.111,0.193,1.935
	c0.055,0.852,0.102,1.401,0.139,1.648c0.112,0.74,0.308,2.799,0.59,6.177c0.752,9.063,1.24,15.2,1.347,15.775
	c-0.071,0.002-0.544,0.017-1.417,0.043c0.001,0.006,0.002,0.016,0.003,0.021c-0.074,0.002-0.606,0.019-1.609,0.049
	c-0.312-2.116-0.724-7.334-1.118-13.019c-0.102-1.523-0.31-3.819-0.624-6.89C73.738,9.441,73.549,7.307,73.477,5.864 M66.761,16.819
	c0.051,0.02,0.09,0.047,0.137,0.069c0.144,0.176,0.259,0.371,0.324,0.598c0.158,0.512,0.103,1.052-0.163,1.621
	c-0.239,0.546-0.637,0.985-1.195,1.315c-0.335,0.216-0.693,0.347-1.07,0.409C65.346,18.823,66.002,17.479,66.761,16.819
	 M64.094,29.356c0.529,0.507,1.314,0.91,2.364,1.206c1.318,0.387,2.598,0.46,3.841,0.22c1.072-0.212,1.953-0.632,2.644-1.26
	c0.801-0.742,0.835-1.461,0.105-2.157c-0.094,0.037-0.183,0.085-0.266,0.141c-0.076-0.23-0.224-0.458-0.46-0.683
	c-0.365,0.146-0.655,0.436-0.869,0.868c-0.24,0.501-0.429,0.81-0.567,0.926c-0.747,0.652-1.646,1.005-2.694,1.059
	c-0.907,0.058-1.686-0.116-2.352-0.5c-0.456-0.446-0.837-1.029-1.14-1.757c-0.736-1.796-0.791-3.6-0.166-5.415
	c1.311,0.162,2.414-0.018,3.307-0.539c0.781-0.45,1.272-1.082,1.475-1.897c0.203-0.791,0.109-1.529-0.281-2.212
	c-0.272-0.441-0.646-0.777-1.101-1.031c-0.43-0.454-1.001-0.764-1.713-0.929c-1.017,0.166-1.801,0.538-2.351,1.116
	c-0.384,0.438-0.76,1.145-1.128,2.121c-1.575,4.178-1.475,7.451,0.301,9.821C63.295,28.794,63.645,29.095,64.094,29.356"/>
</svg>
